<?xml version="1.0" encoding="UTF-8"?>
<svg width="600px" height="600px" viewBox="0 0 600 600" version="1.1" xmlns="http://www.w3.org/2000/svg" xmlns:xlink="http://www.w3.org/1999/xlink">
    <title>drivers/z5500/assets/icon</title>
    <g id="/drivers/z5500/assets/icon" stroke="none" stroke-width="1" fill="none" fill-rule="evenodd">
        <g id="icon" transform="translate(0.000000, 98.000000)">
            <path d="M190.26538,0.0154958644 L190.752129,0.0350847294 L438.7784,12.0309659 C454.623349,12.7973125 467.110375,25.7384235 467.362296,41.5381598 L467.362296,290.114546 C467.362296,306.23718 454.631044,319.449107 438.572743,320.110702 L438.085118,320.126899 L255.13884,324.74502 L251.678998,299.811008 L254.99958,299.72753 C253.786557,299.076366 252.583046,298.407699 251.38938,297.721801 L249.147295,281.564753 C260.422161,289.238507 272.839446,295.135947 286.010615,298.944348 L362.641352,297.009634 C397.998294,284.826175 427.157198,257.404956 442.339394,221.440484 L442.33977,202.972361 C427.834771,255.548095 383.414462,293.929909 330.657869,293.929909 C296.850309,293.929909 266.466063,278.168332 245.183754,253.010339 L241.34022,225.296081 C259.587487,258.957028 292.818328,281.422253 330.657869,281.422253 C388.042931,281.422253 434.828519,229.754833 434.828519,165.726438 C434.828519,101.698043 388.042931,50.0306228 330.657869,50.0306228 C273.272807,50.0306228 226.487219,101.698043 226.487219,165.726438 C226.487219,169.184825 226.623713,172.607149 226.890999,175.987218 L214.342725,175.98676 C214.0986,172.601484 213.974228,169.179651 213.974228,165.726438 C213.974228,95.0529763 266.068474,37.5229672 330.657869,37.5229672 C383.414462,37.5229672 427.834771,75.9047805 442.33977,128.480515 L442.338559,109.375862 C426.979189,73.0074102 397.249663,45.2662323 361.172955,33.3212397 L293.186345,30.0335349 C246.114085,40.7167139 207.627336,77.7332616 194.084491,127.060431 L193.72508,128.396714 L193.776383,128.206598 L193.721934,128.968144 L193.677911,129.729384 L193.640617,130.484242 L193.640617,170.844571 L193.757091,173.347868 L193.870231,175.985842 L181.127626,175.985842 L181.127626,171.149757 L181.101247,170.563744 C181.095773,170.443196 181.090361,170.322288 181.085008,170.201021 L181.069134,169.83615 L181.009249,168.355478 L180.955104,166.84162 L180.906646,165.295524 L180.863821,163.718135 L180.826573,162.110399 L180.810023,161.295448 L180.788627,160.109055 C180.770605,159.031024 180.756328,157.932302 180.745592,156.821084 L180.73603,155.706005 L180.726521,154.134365 L180.720846,152.554965 L180.720846,150.746845 L180.727153,148.609803 L180.740752,146.490581 L180.769691,143.714129 L180.799098,141.684762 L180.834763,139.714594 L180.907268,136.596247 L180.949266,135.129627 L180.994855,133.734289 L181.064373,131.914243 L181.127626,130.525517 L181.127626,27.1272291 L118.768597,44.7431133 C116.611101,45.3525658 115.121599,47.3204346 115.121469,49.5041106 L115.527009,132.104618 L115.587658,142.476119 C115.630066,149.383776 110.062291,155.017902 103.151687,155.06029 C96.2410834,155.102678 90.6045546,149.537278 90.5621475,142.629621 L90.3089602,95.0392529 L90.0956169,49.5609748 C90.0956169,36.2590748 98.8494758,24.5608164 111.575897,20.7826601 L111.962757,20.6706016 L181.132094,1.13155085 C184.102034,0.292597973 187.182648,-0.0835441309 190.26538,0.0154958644 Z M118.825859,286.281741 L119.038818,286.327391 L141.431414,291.327065 L142.961127,317.301089 L113.582734,310.74096 C106.838238,309.234946 102.59213,302.548918 104.098786,295.807297 C105.589581,289.13664 112.154077,284.911008 118.825859,286.281741 Z M442.338102,248.391368 C429.889562,268.111527 413.180675,284.485605 393.688581,296.226913 L437.453262,295.119562 C440.117697,295.052298 442.252788,292.914865 442.333922,290.270661 L442.336314,290.114546 L442.338102,248.391368 Z M193.640573,25.2191863 L193.640573,93.9210573 C208.509631,65.07711 231.989771,42.132109 260.215872,28.4396237 L193.640573,25.2191863 Z M394.208759,34.9170753 C413.493468,46.6477635 430.010429,62.915687 442.336669,82.4342339 L442.336669,42.0178052 C442.336669,39.3992994 440.319931,37.2326451 437.72527,37.027018 L437.568908,37.0170456 L394.208759,34.9170753 Z" id="Combined-Shape" fill="#000000" fill-rule="nonzero"></path>
            <g id="Group-3" stroke-linecap="round" stroke-linejoin="round" transform="translate(464.859697, 120.698877)" stroke="#000000" stroke-width="12.512991">
                <path d="M46.7198546,7.46513479 C57.5099267,2.48837827 68.3358304,4.929632e-15 79.1975665,4.929632e-15 C90.0593019,4.929632e-15 102.851782,2.48837827 117.575007,7.46513479 C127.090493,19.2319926 131.848235,26.6306708 131.848235,29.6611693 C131.848235,34.2069172 135.639086,71.6318995 126.607047,96.8340089 C117.575007,122.036118 112.297025,137.316621 108.005113,143.947949 C103.713202,150.579278 92.7535828,161.974141 74.5455655,161.974141 C56.3375482,161.974141 5.54386516,153.123851 1.95635195,146.709439 C-1.63116127,140.295026 -0.189913964,106.262673 5.50212135,96.8340089 C11.1941567,87.4053447 15.746787,74.073115 18.1714471,66.1095925 C20.5961072,58.1460696 25.5876517,39.3952046 32.0594126,27.470081 C36.3739198,19.5199986 41.2607338,12.8516832 46.7198546,7.46513479 Z" id="Path-6" transform="translate(66.318852, 80.987071) scale(-1, 1) translate(-66.318852, -80.987071) "></path>
                <path d="M132.637705,8.755359 L123.594547,37.0886801 C123.182541,50.5332658 121.580593,62.7429913 118.788702,73.7178569 C114.600867,90.180155 105.382493,107.08076 103.560499,110.726499 C101.738506,114.372239 98.4125175,139.808244 98.4125175,142.88591 C98.4125175,145.963576 67.2516431,149.51679 49.470282,147.740183 C31.6889205,145.963576 15.0155894,142.801751 15.0155894,139.638468" id="Path-7" transform="translate(73.826647, 78.485539) scale(-1, 1) translate(-73.826647, -78.485539) "></path>
                <path d="M41.2928705,103.188159 C41.2928705,106.649948 49.842005,119.394334 71.7088906,121.004019 C95.8202556,122.778927 115.001618,117.104861 128.883807,105.748607" id="Path-8" transform="translate(85.088339, 112.256210) scale(-1, 1) translate(-85.088339, -112.256210) "></path>
                <path d="M25.0259822,29.4950804 C32.1091674,24.5695525 44.1294526,15.6047331 63.399166,17.038762 C82.6688787,18.472791 95.8732706,26.8638031 100.729577,37.5229671" id="Path-9" transform="translate(62.877780, 27.204151) scale(-1, 1) translate(-62.877780, -27.204151) "></path>
                <path d="M90.096333,162.715532 C82.638855,162.491087 71.1713225,164.533111 55.6937357,168.841602 C32.4773557,175.30434 21.2720849,180.019266 21.2720849,183.177305 C21.2720849,185.282665 21.2720849,187.159219 21.2720849,188.806968 L44.8963043,188.806968 C63.0141125,185.166728 77.8468193,183.293829 89.3944243,183.188272 C89.9276235,183.183398 89.9276235,185.056297 89.3944243,188.806968 C89.7395313,191.76451 92.6280546,193.24328 98.0599959,193.24328 C106.207907,193.24328 119.821772,190.916059 126.074228,188.806968 C130.242533,187.400907 133.264558,185.973002 135.140303,184.52325 L135.140303,167.202021 C131.551316,164.211028 128.110366,162.715532 124.817454,162.715532 C121.524542,162.715532 120.87457,160.383792 122.867539,155.720313" id="Path-10" transform="translate(78.206194, 174.481797) scale(-1, 1) translate(-78.206194, -174.481797) "></path>
                <path d="M46.2980665,188.865601 L46.2980665,179.703611 C63.3549272,171.219339 81.2833274,166.977203 100.083266,166.977203 C118.883205,166.977203 116.533821,172.761033 93.0351124,184.328692" id="Path-11" transform="translate(79.457493, 177.921402) scale(-1, 1) translate(-79.457493, -177.921402) "></path>
            </g>
            <path d="M63.74299,122.575026 C76.3498629,122.575026 88.88194,125.449917 101.288937,131.161214 C101.946694,131.463998 102.546869,131.878626 103.062729,132.386629 C109.39262,138.620103 115.012445,146.273586 119.935718,155.327584 C122.592753,160.213924 125.128176,166.222826 127.641896,173.305152 C127.967263,174.221863 128.289037,175.146983 128.608995,176.084951 L129.087791,177.502094 L129.565194,178.941837 L130.042536,180.407508 L130.521149,181.902436 L131.002365,183.42995 L131.487516,184.993378 L131.977935,186.596047 L133.486774,191.650943 L135.359292,197.964068 C135.489694,198.391516 135.621054,198.818095 135.753351,199.243681 L136.066264,200.24319 L138.241022,237.163913 L138.238549,237.158082 L138.091829,236.838533 C137.969165,236.580577 137.845533,236.343593 137.721138,236.128608 L137.64641,236.002265 C133.485551,229.123481 129.696118,220.333579 126.358006,210.730548 L125.884212,209.353273 C125.491956,208.201133 125.106151,207.038209 124.726931,205.866354 L124.275035,204.455962 L123.829513,203.037706 L123.280301,201.247323 L120.328052,191.298624 L119.793722,189.537952 L119.346488,188.084705 L118.90397,186.666263 C118.830551,186.432608 118.757284,186.200292 118.684148,185.969259 L118.24671,184.598013 C118.174005,184.371889 118.101385,184.146938 118.028829,183.923103 L117.59408,182.593038 C117.449299,182.153851 117.304596,181.718683 117.159793,181.287088 L116.724906,180.002579 C116.579725,179.577686 116.434268,179.155921 116.288355,178.736838 L115.849079,177.487192 C115.708882,177.092192 115.568739,176.701123 115.428647,176.314017 L115.008523,175.164629 C114.938528,174.975058 114.868544,174.786487 114.798572,174.59892 L114.37888,173.485604 L113.959457,172.396596 C113.889575,172.217133 113.819703,172.03869 113.749842,171.861274 L113.330793,170.809121 C112.649617,169.118467 111.969356,167.526288 111.289712,166.036623 C111.042281,165.924353 110.799636,165.794677 110.563386,165.647346 L110.329327,165.494121 L106.712075,163.020892 L105.689284,162.337223 L105.012215,161.897627 L104.272255,161.434146 L103.759785,161.122258 L102.563014,160.40854 C93.5409451,155.115379 84.3681663,152.537051 73.1024264,153.364685 C55.8037471,154.635527 43.2345722,161.533827 38.5311218,170.825543 C39.062977,183.945617 40.6894171,195.867909 43.3997432,206.592741 C43.5331319,207.120564 43.6727392,207.653269 43.8184698,208.190724 C45.3702946,213.913859 47.5769884,220.049803 50.2939189,226.453285 C51.8049758,230.014666 53.4012474,233.492143 55.096481,236.977266 L55.7368593,238.284724 L55.8577539,238.529245 L56.1160623,239.044828 C69.9898205,249.314774 88.5925207,253.98311 111.266042,252.32891 C120.61875,251.646562 127.932653,248.887984 133.128078,244.84952 C134.951086,243.432475 136.391954,241.936473 137.374162,240.546485 L137.533603,240.315833 L137.650722,240.139276 C137.918882,239.727191 138.119577,239.362119 138.24801,239.072738 L138.292776,238.967824 L138.296488,238.959387 L138.308792,238.828806 L138.329864,238.668584 L139.340639,255.812934 C132.341102,260.769056 123.180775,264.000571 112.176922,264.803383 C93.1165445,266.193976 76.2565585,263.522964 62.1067394,257.021374 L62.28974,258.114037 L62.4727394,259.240063 L62.719575,260.80448 L62.9699237,262.440416 L63.1601706,263.713953 L63.4328518,265.58259 L63.6215308,266.909692 L63.8413897,268.494305 L64.0266602,269.864125 L64.2610992,271.648364 L64.5308718,273.785943 L64.7254288,275.400239 L64.8987418,276.910214 L65.0134828,277.963578 L65.0925856,278.723726 L65.4441399,278.813842 C65.570416,278.845219 65.7004967,278.876826 65.8342487,278.908592 L66.0376142,278.956355 L66.3332111,279.023981 L66.9483341,279.158637 L67.5944699,279.292357 L68.2705468,279.424964 L68.9754931,279.556285 L69.3384574,279.621407 L69.3384574,279.621407 L69.7082375,279.686142 L70.4677079,279.814364 L71.252833,279.940774 L72.0625412,280.065199 L72.8957612,280.187463 L73.7514208,280.307392 L74.6284495,280.424811 L75.5257748,280.539544 L76.4423251,280.651419 L77.3770299,280.76026 L78.3288162,280.865892 L79.4275926,280.981627 C80.1140183,281.051948 80.8039302,281.118975 81.4962202,281.182652 L82.5363007,281.275649 L83.7879339,281.380553 L85.042069,281.478088 L86.2972697,281.568182 L87.5520981,281.65076 L88.8051177,281.725752 L89.1179212,281.743306 L89.1179212,281.743306 L89.4305001,281.760379 L90.6781116,281.823853 L91.6103551,281.866363 L91.6103551,281.866363 L92.5389536,281.904473 L93.7703683,281.948387 C94.3157714,281.966142 94.8585105,281.981542 95.3980162,281.994557 L96.2047807,282.012287 L97.4049041,282.032128 L97.7029123,282.035815 L97.7029123,282.035815 L98.0000664,282.038989 L99.1796949,282.046548 C103.272875,282.058532 107.083271,281.919078 110.335529,281.614235 L110.819146,281.567266 L112.067106,281.439396 L113.305787,281.307768 L114.534322,281.172501 L115.751843,281.033711 L116.957482,280.891518 L118.150372,280.746038 L119.329645,280.597391 L120.494433,280.445693 L121.64387,280.291062 L122.777086,280.133615 L123.893215,279.973473 L124.991389,279.81075 L126.070739,279.645567 L127.1304,279.47804 L127.392137,279.435806 L127.392137,279.435806 L127.652575,279.393434 L128.681073,279.222612 L129.687711,279.049741 L129.935854,279.006217 L129.935854,279.006217 L130.182563,278.962574 L131.154785,278.786851 L132.102978,278.609373 L132.336171,278.564743 L132.336171,278.564743 L132.567793,278.520013 L133.478317,278.340125 L134.362644,278.158775 L135.219904,277.976085 L135.638114,277.884273 L136.307774,277.733239 L136.471647,277.69548 L136.471647,277.69548 L136.634089,277.657726 L137.269408,277.506816 L137.881262,277.3562 L138.469195,277.206052 L139.03275,277.05654 L139.571473,276.907837 L140.084906,276.760112 L140.20926,276.723354 L140.20926,276.723354 L140.331997,276.686671 L140.564685,276.614935 L141.729436,296.37935 C141.667478,296.402867 141.605269,296.42636 141.542811,296.449832 L140.81356,296.718786 C139.949933,297.031458 139.041407,297.340324 138.08821,297.646071 L137.260248,297.907393 C136.980618,297.994256 136.697346,298.080881 136.410438,298.167283 L135.538811,298.42584 C135.391723,298.468827 135.243728,298.511762 135.094826,298.554647 L134.190533,298.811382 C134.038005,298.854078 133.884571,298.896727 133.730232,298.939333 L132.793344,299.194463 L131.834765,299.448644 C131.673196,299.490934 131.510725,299.533188 131.347351,299.575408 L130.356296,299.828345 L129.343629,300.080574 L128.309382,300.33219 C128.135212,300.37408 127.960143,300.415949 127.784176,300.457799 L126.717619,300.708676 L125.077479,301.084328 L123.95723,301.334458 L122.815558,301.584458 L121.652496,301.834422 L120.468076,302.08445 L119.262328,302.334635 L117.413789,302.71042 L115.517442,303.087103 L114.874721,303.212921 C114.544224,303.277389 114.213164,303.341489 113.881612,303.405211 L115.428257,303.831511 L117.247023,304.341663 L119.038773,304.850632 L120.785673,305.353254 L122.487823,305.849571 L124.687916,306.501592 L126.286035,306.983361 L127.326766,307.301113 L129.349119,307.928447 L130.814282,308.391848 L131.766541,308.697424 L133.158226,309.150782 L134.505959,309.598172 L135.380077,309.893136 L136.234734,310.185478 L137.480295,310.619102 L138.286428,310.904943 L139.073203,311.188206 L139.84065,311.468903 L140.588797,311.747047 L141.317676,312.022649 L142.027314,312.295722 L142.681257,312.551306 L144.174057,337.903699 L125.967806,337.90376 L125.718123,337.898779 C125.468664,337.888819 125.220024,337.863944 124.973538,337.824286 L124.72782,337.779705 L123.1198,337.457478 L121.487376,337.13617 L119.872732,336.824303 L118.275876,336.521875 L116.696819,336.228883 L115.13557,335.945325 L113.592137,335.671198 L112.06653,335.406499 L110.558759,335.151226 L110.184603,335.088881 L110.184603,335.088881 L109.811564,335.027123 L108.330563,334.785984 L107.963103,334.727171 L107.963103,334.727171 L107.596758,334.668947 L106.142549,334.441935 L104.706211,334.224339 L103.287754,334.016155 C102.817917,333.948329 102.351061,333.882071 101.887189,333.817381 L101.193618,333.721522 L99.8199064,333.536858 L99.4792771,333.492161 L99.4792771,333.492161 L99.1397678,333.448052 L97.7929301,333.277492 C97.3469715,333.222206 96.9040016,333.168486 96.4640204,333.116332 L95.8062913,333.039275 L94.5042908,332.892209 L94.1815952,332.856911 L94.1815952,332.856911 L93.860022,332.822199 L92.5849513,332.68922 L91.3278456,332.565631 L90.0887141,332.451428 L89.7817404,332.424343 L89.7817404,332.424343 L89.475891,332.397846 L88.2637381,332.297717 L87.0695821,332.206968 L86.4792561,332.16511 L86.4792561,332.16511 L85.8934329,332.125596 L84.7352993,332.053598 L84.2908404,332.028228 L84.2866898,332.104637 C84.2802243,332.193283 84.2718657,332.28183 84.2616131,332.370221 C83.8295971,336.094606 81.6660284,339.080537 78.3004524,340.813789 C75.7193583,342.143038 72.5494704,342.709766 68.7145997,342.709766 C66.2097423,342.709766 63.2251706,342.518338 60.0538184,342.18592 L59.4922888,342.125805 L58.4189771,342.004094 C57.8196333,341.933698 57.2155655,341.858732 56.6086515,341.779521 L55.6963805,341.657562 L54.5980025,341.503145 L53.497938,341.340327 L53.497938,341.340327 L52.3986204,341.169526 L51.302483,340.991161 L50.2119594,340.805651 L49.9404908,340.758207 L49.9404908,340.758207 L49.6695632,340.710349 L48.592023,340.514907 C48.1155353,340.426659 47.6425136,340.336603 47.1739191,340.244907 L46.474468,340.106152 L45.4393202,339.893676 C45.097302,339.822021 44.7584501,339.749559 44.4231701,339.67636 L43.9229796,339.566018 L42.9398887,339.342226 L41.9818791,339.114643 C39.9351206,338.617737 38.0821117,338.097076 36.5342332,337.571834 C31.4424463,335.844039 27.6148536,334.024737 24.9406978,331.945598 C23.4693349,330.801623 22.5876881,329.063924 22.5286344,327.208467 L22.5254655,327.009239 L22.5254655,308.244574 L22.528588,308.04684 C22.5825457,306.339193 23.3335387,304.727509 24.6062696,303.587439 L24.7614904,303.452919 L25.0620875,303.20345 C28.4579775,300.413801 31.923302,298.537163 35.4514095,297.674077 L35.8044293,297.59115 L35.9906951,297.550875 L35.9531727,297.419095 C35.8544596,297.051293 35.7909364,296.680277 35.7609447,296.310152 C32.4439568,293.33109 29.6545793,290.043403 27.5112914,286.738366 L27.3884299,286.547475 L27.1420468,286.156058 L26.8946355,285.751518 L26.6460185,285.333528 L26.3960179,284.901761 L26.1444559,284.455887 L25.8911548,283.995579 L25.6359369,283.520508 L25.3786245,283.030347 L25.1190396,282.524768 L24.8570047,282.003441 L24.5923419,281.466041 L24.1900317,280.629082 L23.7808091,279.75411 L23.364074,278.840017 L23.0817808,278.208341 L22.6511919,277.226587 L22.3591073,276.548778 L22.0627951,275.851942 L21.6100113,274.770294 L21.1467155,273.643988 L20.6723079,272.471919 L20.1861885,271.252978 L19.6877574,269.986058 L19.1764147,268.670052 L18.4394211,266.747667 L17.9065614,265.341192 L17.0693123,263.106898 L16.0220851,260.277386 L14.7114148,256.694608 L13.4457596,253.203661 L6.86678471,234.879267 C4.2265103,227.526578 2.4241941,219.030922 1.32610141,209.567176 C-0.157083002,196.784575 -0.281973681,183.861177 0.390820872,169.745359 L0.49045326,167.791813 L0.836710013,161.32351 L0.862190217,160.665939 C0.862190217,159.692073 1.03381824,158.627133 1.38205228,157.453058 L1.50467808,157.057633 C1.54773822,156.924461 1.59298551,156.789917 1.64042678,156.653975 L1.78933935,156.241937 C1.81525738,156.172557 1.84172561,156.102822 1.86874489,156.032728 L2.03748009,155.607839 C2.12516084,155.393219 2.21781646,155.175316 2.31546999,154.954047 L2.51744775,154.506998 L2.73279423,154.050823 L2.96155041,153.585377 L3.20375725,153.110508 L3.45945574,152.626069 C3.50319873,152.544523 3.54750558,152.462573 3.59237714,152.380215 L3.86838991,151.881142 L4.15799673,151.372127 L4.4612386,150.853022 L4.77815647,150.323678 L5.10879132,149.783946 L5.45318412,149.233679 L5.81137586,148.672726 L6.18340748,148.100939 L6.56931995,147.518171 L6.96915424,146.924272 C7.0369557,146.824353 7.10533901,146.723964 7.17430492,146.623101 L7.59509879,146.012227 L8.0299169,145.389851 L8.47880031,144.755824 L8.94178986,144.109997 L9.41892666,143.452222 L9.91025157,142.78235 L10.4158056,142.100232 L10.9356297,141.405721 L11.4697648,140.698667 L12.0182521,139.978921 L12.5811323,139.246336 L13.4525291,138.123058 L14.3565407,136.970054 L15.2933052,135.786822 L16.262961,134.572861 L17.2656463,133.32767 C17.3788959,133.187562 17.4927597,133.046866 17.6072386,132.90558 C18.3532024,131.984932 19.3454423,131.295022 20.468441,130.916171 C36.9017452,125.372284 51.3104491,122.575026 63.74299,122.575026 Z M48.5468594,304.68293 L48.4836976,304.814361 C46.9296812,307.945382 43.7811181,309.569604 40.1324386,309.635921 L39.8988756,309.638038 L39.7337012,309.640571 C38.4640512,309.679305 37.003744,310.16359 35.3471324,311.178787 L35.1091375,311.327436 L35.0384565,311.373085 L35.0384565,323.513016 L35.1896549,323.588082 C36.5895442,324.26802 38.3849748,324.991128 40.5566184,325.728032 C42.1716148,326.276048 44.2630882,326.83068 46.6120891,327.354119 L47.0292474,327.446159 L47.9290792,327.63872 L48.8491491,327.827732 L49.5509552,327.966898 L49.5509552,327.966898 L50.2616456,328.103635 L51.2212012,328.281854 L52.1921074,328.454989 L53.171825,328.622601 L53.4178336,328.663589 L53.4178336,328.663589 L53.6641945,328.704198 L54.6523678,328.862704 L54.8998953,328.901313 L54.8998953,328.901313 L55.1475369,328.939502 L56.1384528,329.087914 L57.1280228,329.229049 L57.3749075,329.263145 L57.3749075,329.263145 L57.6215097,329.296752 L58.6042999,329.426149 L58.8488945,329.457208 L58.8488945,329.457208 L59.0929686,329.487736 L60.0632657,329.60441 L60.5442594,329.659388 L60.5442594,329.659388 L61.0220599,329.712054 L61.9668123,329.810228 L62.8949828,329.898494 L63.8040328,329.976414 L64.6914228,330.04355 C65.9887766,330.134805 67.2064621,330.189111 68.3073244,330.200053 L68.7145997,330.20211 L68.9889852,330.200618 C69.736221,330.192399 70.3948172,330.150387 70.9607836,330.078935 L70.4980844,329.84919 L69.7147637,329.456776 L68.9475509,329.068539 L68.1963754,328.684374 L67.4611659,328.304176 L66.7418516,327.927842 L66.0383612,327.555263 L65.3506253,327.186337 L64.6785714,326.820957 L64.0221292,326.459018 L63.3812276,326.100415 L62.7557964,325.745044 L61.846501,325.217814 L61.6983036,325.130601 L61.6983036,325.130601 L61.5510608,325.043573 L60.9716143,324.697263 L60.4073544,324.353762 L59.8582102,324.012967 L59.3241107,323.674772 L59.1929282,323.590618 L59.1929282,323.590618 L59.0626806,323.506617 L58.5510154,323.172124 L58.0542177,322.839968 L57.5722169,322.510044 L57.1049418,322.182246 L56.6523218,321.856469 L56.2142858,321.532609 L56.0007148,321.371364 L56.0007148,321.371364 L55.7907632,321.210558 L55.3816828,320.890214 L54.986974,320.57147 L54.7949867,320.412666 L54.7949867,320.412666 L54.6065658,320.254221 L54.2403873,319.938363 L53.8883678,319.623789 L53.8025669,319.545334 L53.8025669,319.545334 L53.7176454,319.466951 L53.3867313,319.154107 C52.6189412,318.413804 51.9689886,317.682113 51.4326262,316.95273 L51.2368065,316.679307 L51.0291764,316.371873 C50.6607747,315.808344 50.3596483,315.245195 50.1238319,314.679507 C49.0225321,312.037654 49.196495,309.122511 50.8806216,306.699534 C51.0770081,306.41699 51.2862275,306.15059 51.5078441,305.899235 C50.504394,305.526597 49.5173976,305.12056 48.5468594,304.68293 Z M133.892758,322.618718 L133.892758,325.395418 L140.994085,325.396043 L140.600849,325.22441 C140.433804,325.151926 140.263425,325.078805 140.089732,325.00507 L139.82671,324.894009 L139.544884,324.776279 L138.966752,324.538585 L138.063358,324.176469 L137.436964,323.931346 L136.791269,323.683259 L136.126272,323.432212 L135.092592,323.050099 L134.37935,322.791667 L133.892758,322.618718 Z M69.2844882,313.942158 L68.960383,313.942729 C68.6744899,313.943742 68.3944748,313.946098 68.1204128,313.949754 L67.7137944,313.956208 L67.4351045,313.961545 L67.717863,314.13165 L67.8766673,314.226258 L67.8766673,314.226258 L68.0371226,314.321345 L68.6954448,314.706477 L69.3801357,315.099234 L70.0911526,315.499578 L70.2730152,315.600845 L70.2730152,315.600845 L70.4565207,315.702583 L71.2069485,316.114235 L71.983598,316.533377 L72.1818525,316.639329 L72.1818525,316.639329 L72.3817432,316.745746 L73.1976459,317.176051 L73.4057044,317.284785 L73.4057044,317.284785 L73.615394,317.39398 L74.4704561,317.835364 L75.3515715,318.284084 L76.2586989,318.740103 L76.4895398,318.855243 L76.4895398,318.855243 L76.7220036,318.970837 L77.4604722,319.334952 C77.601665,319.322393 77.7441811,319.314356 77.8878828,319.310986 L78.1043069,319.309449 L79.1942053,319.323994 C79.5628467,319.330421 79.9342354,319.338401 80.3083739,319.347936 L80.8716437,319.363404 L82.0105598,319.401331 L83.1659856,319.448578 L84.3379286,319.505143 L85.5263987,319.571022 C85.925311,319.594534 86.3269786,319.619599 86.7314041,319.646215 L87.3401099,319.687302 L88.5699342,319.776459 L89.8163144,319.874922 C90.2345355,319.909294 90.6555169,319.945216 91.0792606,319.982689 L91.7169483,320.040061 L93.0047584,320.16178 L94.3091558,320.292797 L94.6378476,320.327004 L94.6378476,320.327004 L94.9675768,320.361791 L96.29687,320.506751 L97.6427717,320.661001 L97.9818431,320.701016 L97.9818431,320.701016 L98.3219537,320.741611 L99.6927838,320.909794 L100.03809,320.953292 L100.03809,320.953292 L100.384435,320.997369 L101.780213,321.179481 L102.484343,321.274017 L102.484343,321.274017 L103.192635,321.370874 L104.621707,321.571547 L105.342491,321.675363 L106.796556,321.889951 L107.529841,322.000723 L107.529841,322.000723 L108.267296,322.113812 L109.754716,322.346945 L110.129179,322.406676 L110.129179,322.406676 L110.504685,322.466987 L112.017144,322.714021 L112.397868,322.777228 L112.397868,322.777228 L112.779637,322.841013 L114.317154,323.101944 L115.871387,323.372135 L117.442344,323.651586 L118.397741,323.825084 C102.712742,317.232238 86.357327,313.942158 69.2844882,313.942158 Z M19.8387216,150.430826 L19.8058461,150.476504 L19.3170681,151.148412 L18.8459857,151.80372 L18.3926135,152.442395 L17.956966,153.064409 C17.885836,153.166688 17.8154451,153.268271 17.7457936,153.369159 L17.1389036,154.25833 L16.7565177,154.830177 L16.3919149,155.385241 L16.0309084,155.945783 L15.677471,156.507042 L15.3471784,157.044865 C15.2940618,157.132531 15.2419122,157.219206 15.1907308,157.304883 L14.8952721,157.806919 C14.7533627,158.051895 14.6201911,158.287767 14.4957923,158.514343 L14.2587024,158.955047 C14.1835785,159.097779 14.112364,159.236325 14.0450693,159.370627 L13.8549555,159.760746 L13.7046452,160.088408 L13.5913801,160.351873 C13.5741519,160.393392 13.5577456,160.433698 13.5421568,160.472764 L13.4584022,160.69207 C13.4460671,160.72607 13.4345411,160.758779 13.42382,160.790167 L13.3689335,160.963489 L13.2963067,162.635186 L12.9427364,169.257558 C12.2413587,183.178598 12.3285768,195.826116 13.7557707,208.126172 L13.8426281,208.859325 C14.8146365,216.897155 16.334208,224.046556 18.4500898,230.105922 L25.2146756,248.954878 L26.9657581,253.777018 L28.2099918,257.163764 L29.2057277,259.839793 L30.0034084,261.955021 L30.5120793,263.288146 L30.9882179,264.523172 L31.6027801,266.096253 L32.1948574,267.58674 L32.7652164,268.996314 L33.179194,270.001409 L33.5817098,270.962646 L33.8438456,271.579457 L34.2279768,272.469177 L34.6015085,273.316932 L34.9647641,274.123433 L35.2013852,274.638532 L35.5482326,275.377853 L35.8856663,276.077812 L36.105552,276.522934 L36.428015,277.158867 L36.6382196,277.561963 L36.8447195,277.948616 L37.0476105,278.319037 L37.2469884,278.673435 L37.4429491,279.012023 L37.6355883,279.335008 L37.8250019,279.642602 C37.8876128,279.742592 37.9497021,279.840052 38.0112858,279.935016 C40.4311072,283.666479 44.1076098,287.499127 48.5924749,290.463845 C54.3740307,294.285738 61.0795088,296.43144 68.7460855,296.43144 L69.3421644,296.428368 L69.9618327,296.419202 L70.6044868,296.40402 L71.2695229,296.382897 L71.9563384,296.35591 L73.0260771,296.3046 L73.7646996,296.263286 L74.52299,296.216373 L75.3003439,296.16394 L76.5007996,296.075103 L77.740755,295.974274 L78.5883306,295.900518 L79.8895935,295.780271 L80.7761558,295.693808 L82.1330695,295.554857 L83.5206595,295.405028 L84.936888,295.244577 L86.3797197,295.073763 L87.8471181,294.892842 L88.8380256,294.766741 L90.8474681,294.50171 L91.6814915,294.388869 C89.0046968,294.280552 86.2888653,294.120385 83.5857302,293.911617 L82.2354596,293.803198 L80.8738603,293.685435 L80.5342021,293.654726 L80.5342021,293.654726 L80.1948867,293.623512 L78.8415204,293.493642 L77.4954992,293.355817 L76.4138618,293.238532 L75.3494956,293.117077 L74.3034571,292.991592 L74.0449349,292.959607 L74.0449349,292.959607 L73.7876409,292.927381 L72.7710761,292.79611 L71.7754825,292.661153 L71.5299845,292.626855 L71.5299845,292.626855 L71.2858805,292.592337 L70.3237253,292.452114 L69.3851847,292.308553 L68.4713146,292.161793 L67.5831738,292.011973 L67.3652826,291.974055 L67.3652826,291.974055 L67.1490819,291.935957 L66.3015157,291.781806 C65.1901074,291.57443 64.1543565,291.359816 63.2055402,291.139443 C61.1200338,290.655061 59.4172397,290.138116 58.0636529,289.541595 C57.0858181,289.110667 56.235761,288.621569 55.4655984,287.972703 C53.9887134,286.728419 52.9346616,285.039237 52.8660324,282.799058 L52.8624711,282.565346 L52.8581088,282.305584 L52.8556745,282.232909 L52.8556745,282.232909 L52.852712,282.157205 L52.8356731,281.824766 L52.7950608,281.240846 L52.7372783,280.560923 L52.6897147,280.057811 L52.5742282,278.941467 L52.4709732,278.016133 L52.3545733,277.023194 L52.1806651,275.606383 L52.0375072,274.483308 L51.7776509,272.517377 L51.4952576,270.462256 L51.1331962,267.92466 L50.7534409,265.362756 L50.4292698,263.250241 L50.1030606,261.193155 L49.8437566,259.60948 L49.5885152,258.099144 L49.2788104,256.339989 L49.0997616,255.365793 L48.9838394,254.754585 L48.8158672,253.900416 L48.7082611,253.3758 L48.6045033,252.889501 L48.5048919,252.443623 L48.4097251,252.040271 L48.319301,251.681546 L48.2339178,251.369553 C48.1787423,251.177603 48.1271261,251.018209 48.0794668,250.894177 L48.0444706,250.807828 L48.0106652,250.734335 L46.2111014,247.194428 L46.1130342,247.115635 C44.6161487,245.902021 43.8263585,244.140007 43.7983237,242.353443 C42.0312369,238.718066 40.3619942,235.079242 38.7741333,231.336842 C35.8505041,224.446196 33.457332,217.79173 31.7412121,211.462674 C31.6316222,211.058506 31.5249462,210.656124 31.4212171,210.255548 L31.2678378,209.656041 L31.0630686,208.836017 C28.2238827,197.328371 26.5431218,184.673977 26.0103314,170.872513 L25.9742271,169.884743 L25.9707193,169.768912 L19.8387216,150.430826 Z M63.74299,135.082681 L63.2290321,135.084545 C53.7499033,135.15309 42.6544324,137.112351 29.9736286,140.994741 L34.5895875,155.555062 C43.1742007,147.348003 56.3790645,142.051871 72.1852448,140.890675 C81.2544567,140.224407 89.3138678,141.35437 96.8684647,143.990405 C96.3033918,143.368925 95.7317721,142.763014 95.1540836,142.172606 L95.0511824,142.067582 L94.8765686,141.989528 C84.470826,137.373485 74.1079647,135.082681 63.74299,135.082681 Z" id="Combined-Shape" fill="#000000" fill-rule="nonzero"></path>
            <polygon id="Path-2" stroke="#000000" stroke-width="25.025982" stroke-linejoin="round" transform="translate(196.753711, 268.896727) scale(-1, 1) translate(-196.753711, -268.896727) " points="272.140566 163.478394 260.637549 358.786819 250.079651 374.31506 142.170126 374.31506 121.366856 356.23155 148.110243 163.478394"></polygon>
            <polygon id="Path-3" fill="#000000" fill-rule="nonzero" transform="translate(190.694069, 212.161634) scale(-1, 1) translate(-190.694069, -212.161634) " points="157.347551 170.982987 146.90986 253.340281 228.583457 253.340281 234.478278 170.982987"></polygon>
            <ellipse id="Oval" stroke="#000000" stroke-width="12.512991" stroke-linecap="round" stroke-linejoin="round" transform="translate(198.263420, 283.537219) scale(-1, 1) translate(-198.263420, -283.537219) " cx="198.26342" cy="283.537219" rx="28.8299313" ry="26.4161688"></ellipse>
            <ellipse id="Oval" fill="#000000" fill-rule="nonzero" transform="translate(240.591339, 341.867612) scale(-1, 1) translate(-240.591339, -341.867612) " cx="240.591339" cy="341.867612" rx="9.21411154" ry="8.44266758"></ellipse>
            <path d="M198.248582,257.032324 C213.218808,257.032324 225.51943,267.463896 226.899641,280.796903 L227.028461,280.79687 L227.028461,291.428377 L227.020451,291.428884 C226.656176,305.646099 213.914038,317.069072 198.248582,317.069072 C182.583126,317.069072 169.840989,305.646099 169.476714,291.428884 L169.468703,291.428377 L169.468703,280.79687 L169.597524,280.796903 C170.977734,267.463896 183.278357,257.032324 198.248582,257.032324 Z" id="Combined-Shape" stroke="#000000" stroke-width="12.512991" stroke-linecap="round" stroke-linejoin="round" transform="translate(198.248582, 287.050698) scale(-1, 1) translate(-198.248582, -287.050698) "></path>
            <polygon id="Path-5" stroke="#000000" stroke-width="12.512991" stroke-linecap="round" stroke-linejoin="round" transform="translate(200.027962, 393.973284) scale(-1, 1) translate(-200.027962, -393.973284) " points="184.971471 384.946567 184.971471 389.142956 169.694719 389.142956 141.240771 396.580204 141.240771 401.061392 253.146064 403 258.815152 389.142956 235.437773 387.418667 235.437773 384.946567"></polygon>
        </g>
    </g>
</svg>