<?xml version="1.0" encoding="UTF-8"?>
<svg width="960px" height="960px" viewBox="0 0 960 960" version="1.1" xmlns="http://www.w3.org/2000/svg" xmlns:xlink="http://www.w3.org/1999/xlink">
    <title>assets / capabilities / menu</title>
    <g id="assets-/-capabilities-/-menu" stroke="none" stroke-width="1" fill="none" fill-rule="evenodd">
        <path d="M88.4001485,592 L88.4001485,528.254703 L83.5952266,418.382156 L146.379539,592 L179.373336,592 L242.317813,418.221992 L237.512891,528.254703 L237.512891,592 L285.722274,592 L285.722274,358.801125 L222.617633,358.801125 L163.036602,527.934375 L103.135242,358.801125 L40.3509298,358.801125 L40.3509298,592 L88.4001485,592 Z M484.405152,592 L484.405152,553.400461 L376.134246,553.400461 L376.134246,490.936477 L468.388746,490.936477 L468.388746,453.297922 L376.134246,453.297922 L376.134246,397.720992 L484.084824,397.720992 L484.084824,358.801125 L328.085027,358.801125 L328.085027,592 L484.405152,592 Z M561.043016,592 L561.043016,438.562828 L654.578828,592 L702.628047,592 L702.628047,358.801125 L654.738992,358.801125 L654.738992,512.558625 L561.043016,358.801125 L512.993797,358.801125 L512.993797,592 L561.043016,592 Z M832.120051,595.203281 C859.775046,595.203281 881.584052,587.782346 897.54707,572.940477 C913.510089,558.098607 921.491598,537.917935 921.491598,512.398461 L921.491598,512.398461 L921.491598,358.801125 L873.282215,358.801125 L873.282215,514.000102 C872.855111,542.402529 859.134389,556.603742 832.120051,556.603742 C819.20015,556.603742 809.08312,553.106827 801.768961,546.112996 C794.454802,539.119165 790.797723,527.987763 790.797723,512.718789 L790.797723,512.718789 L790.797723,358.801125 L742.748504,358.801125 L742.748504,514.160266 C743.068832,539.359411 751.237199,559.166367 767.253605,573.581133 C783.270012,587.995898 804.89216,595.203281 832.120051,595.203281 Z" id="MENU" fill="#000000" fill-rule="nonzero"></path>
    </g>
</svg>