<?xml version="1.0" encoding="UTF-8"?>
<svg width="600px" height="600px" viewBox="0 0 600 600" version="1.1" xmlns="http://www.w3.org/2000/svg" xmlns:xlink="http://www.w3.org/1999/xlink">
    <title>assets/icon</title>
    <g id="/assets/icon" stroke="none" stroke-width="1" fill="none" fill-rule="evenodd">
        <path d="M0.118689581,316.847948 C0,304.277519 1.13629235,293.684023 2.37429586,283.067316 C3.26105872,275.460954 4.67191833,267.961065 6.58660373,260.626228 C8.9741556,251.479878 11.9650453,242.481264 15.4007907,233.617491 C19.600936,222.781944 24.7774049,212.433446 30.1219387,202.18221 C34.5763925,193.638592 39.8752245,185.529339 45.4136224,177.618296 C51.483857,168.946837 57.7505357,160.422009 64.7300154,152.43986 C72.1532452,143.949663 79.7791846,135.594676 88.2568734,128.202365 C111.893563,107.59121 137.534868,90.1381355 167.496101,79.7472691 C182.473032,74.5529411 197.731176,70.5780774 213.396583,68.2194642 C223.525803,66.6938445 233.720627,66.5556877 243.857956,68.0544128 C248.803336,68.7857229 253.692694,70.059713 258.141251,72.5107992 C262.792518,75.0738844 266.674593,78.34728 267.751903,83.9210787 C268.561636,88.1118355 267.286039,91.9555424 265.42111,95.5896193 C261.772703,102.698248 257.264808,109.295144 252.896598,115.967566 C242.342056,132.089545 231.997963,148.335314 222.69285,165.225445 C212.490655,183.745827 203.535677,202.847941 196.758538,222.870733 C191.562167,238.22456 187.943614,253.972227 186.84935,270.26589 C186.083845,281.654801 185.142166,293.016081 185.396106,304.444781 C185.72339,319.175245 189.294398,333.192452 194.049599,347.057502 C198.790058,360.879447 206.362924,373.226614 213.265374,385.928567 C221.637654,401.333237 229.278336,417.048851 234.509352,433.826983 C238.586766,446.903987 240.796302,460.266146 239.241703,473.984934 C237.999277,484.945374 234.139315,495.006875 227.789341,504.080278 C220.12802,515.026719 210.336035,523.524653 198.162764,529.012978 C190.561886,532.440004 182.323764,533.16063 174.050627,532.972737 C166.916351,532.810265 159.766964,532.332795 152.847191,530.564019 C147.228078,529.127925 141.650244,527.399675 136.270328,525.179219 C124.789218,520.441361 114.01317,514.357672 103.778541,507.375779 C97.0795373,502.806656 90.9838719,497.438803 84.7787433,492.196581 C77.6382015,486.164102 71.4046935,479.304524 64.9216682,472.682575 C58.6446698,466.271362 53.5054257,458.839262 48.1468865,451.644423 C43.5324763,445.447998 38.972982,439.172363 34.9320559,432.598677 C31.8398114,427.567927 28.8492903,422.446546 26.0058258,417.245955 C18.7359183,403.949006 12.8905073,390.097587 8.49981487,375.594069 C6.61019176,369.352328 4.49648229,363.080008 3.68453774,356.690532 C1.92575454,342.853113 -0.575314769,329.037063 0.118689581,316.847948" id="Fill-1" fill="#000000"></path>
        <path d="M328.680112,390.012709 C330.512503,389.979493 332.332388,389.945908 334.13094,389.448041 C343.058971,386.975683 350.686453,382.357589 356.978445,375.547624 C358.202122,374.223793 359.942562,372.771896 359.075653,370.815858 C358.210582,368.864618 355.985746,369.258778 354.187929,369.231836 C348.672736,369.149904 343.220436,369.978821 337.744965,370.443473 C330.229663,371.080846 322.861849,370.710306 315.772094,367.810941 C313.401241,366.841041 311.021929,365.863391 308.579723,365.106442 C306.799192,364.553953 304.718535,363.02972 303.097631,364.683495 C301.528219,366.285231 302.274857,368.606642 302.754472,370.642398 C302.809642,370.877492 302.939844,371.094132 303.015611,371.325904 C306.425137,381.778158 317.661126,389.958087 328.680112,390.012709 M270.228237,297.467021 C270.340065,298.644334 270.500059,300.850967 270.76598,303.044682 C271.373957,308.069115 272.794777,312.891671 274.500275,317.635986 C274.802609,318.475975 275.269717,319.179041 276.307655,319.195578 C277.293365,319.210412 277.933709,318.647959 278.323579,317.8434 C278.637682,317.194217 278.800986,316.46753 278.999232,315.76594 C280.13574,311.753479 281.220389,307.725517 282.400298,303.726342 C286.141582,291.048264 292.881925,280.543234 304.283057,273.419565 C306.04814,272.317172 307.726054,271.074534 309.44369,269.896483 C312.484678,267.810534 315.377075,265.540054 317.885118,262.820793 C318.52399,262.12806 319.616731,261.464114 319.289754,260.400842 C318.880023,259.06889 317.503707,259.424668 316.45731,259.315794 C315.971811,259.265601 315.476014,259.278888 314.987204,259.306937 C308.371547,259.688179 301.802232,260.46469 295.460586,262.453574 C279.341288,267.50864 270.159842,279.940184 270.228237,297.467021 M345.259163,335.9445 C346.972018,335.9445 348.690022,336.027909 350.396992,335.921618 C352.102491,335.814959 353.806886,335.583556 355.493627,335.296425 C371.175609,332.630308 382.45647,324.372507 388.300479,309.229083 C390.082113,304.611726 390.439249,299.972226 388.831585,295.199493 C384.94833,283.671787 377.457303,275.283337 366.722628,269.859945 C359.584323,266.254193 352.178626,266.011718 344.725482,269.115913 C332.133775,274.35994 321.624931,282.325812 313.408965,293.265599 C310.593072,297.015656 308.45136,301.135884 307.130214,305.663189 C304.388617,315.061028 307.313747,323.281554 315.345812,328.812343 C317.993252,330.635149 320.865787,332.014341 323.927004,332.891974 C330.890235,334.887502 337.98514,336.118329 345.259163,335.9445 M328.47635,223.244241 C344.341129,224.136637 360.173174,225.38112 375.749965,228.953288 C379.871556,229.898461 384.050892,230.642862 388.151151,231.702075 C398.861919,234.46747 408.113615,240.164338 417.051208,246.429564 C420.032245,248.518834 422.97503,250.710335 425.678008,253.142465 C433.483138,260.165748 439.635733,268.362285 442.427352,278.694224 C444.364198,285.864764 444.43592,292.996552 443.059604,300.425805 C441.070898,311.164084 436.925399,320.839459 430.801861,329.658976 C424.864062,338.211659 417.798214,345.801824 409.907018,352.652016 C406.128954,355.931148 402.498747,359.416217 398.85493,362.863272 C388.565664,372.596221 377.965237,381.955678 366.090744,389.715243 C358.681369,394.556991 350.847918,398.578309 342.617608,401.955981 C338.095848,403.812002 333.4917,405.351367 328.871001,406.755286 C323.620257,408.350748 318.08226,408.083915 312.599065,407.733305 C303.89098,407.176019 295.569088,405.138787 287.738947,401.312334 C281.844917,398.43216 277.196265,394.188665 274.165208,388.189534 C271.142977,382.207749 267.801862,376.388721 264.677014,370.457866 C262.059366,365.48953 257.837733,362.29639 253.110371,359.634333 C247.974014,356.742719 243.01604,353.601248 238.181648,350.199957 C227.43925,342.641162 220.17626,332.759849 216.304406,320.141191 C214.014838,312.680567 212.762471,305.102581 212.115507,297.387303 C211.566746,290.844172 212.968441,284.740965 216.424678,279.082849 C220.555832,272.319017 225.63518,266.38152 231.44388,261.045596 C246.354213,247.347795 263.233023,236.826156 282.40177,230.353885 C297.290034,225.326499 312.564491,222.056225 328.47635,223.244241" id="Fill-4" fill="#000000"></path>
        <path d="M490.142741,78.0010658 C494.749926,78.1046973 500.465493,79.4588898 505.462209,83.2326217 C509.442326,86.2390391 511.729214,90.327708 512.810795,95.0495583 C513.486692,97.9982802 512.221543,100.772445 511.068737,103.467601 C508.181582,110.217249 503.465725,115.656802 498.434499,120.814126 C488.707975,130.784804 477.576056,139 466.00027,146.68306 C455.322865,153.770429 444.081907,159.816705 432.466103,165.132783 C425.208934,168.45377 417.751675,171.478562 409.602366,171.930572 C407.779538,172.031631 405.922199,172.045596 404.117727,171.812976 C400.120355,171.297391 397.924517,168.909455 398.001982,164.927725 C398.084588,160.695001 399.233722,156.874598 401.508127,153.062647 C408.243597,141.773423 416.265143,131.458042 424.786728,121.564168 C430.009232,115.500988 434.8903,109.015196 441.138948,103.916303 C449.090738,97.4275717 456.571494,90.3207257 465.465354,85.0377216 C472.619358,80.7884605 480.176478,77.9367554 490.142741,78.0010658" id="Fill-6" fill="#000000"></path>
        <path d="M435.924384,431 C440.785757,431.428647 445.445862,432.759029 450.055836,434.277776 C464.970607,439.192283 478.386934,446.945946 491.08445,456.059908 C506.449676,467.089294 519.430662,480.389044 529.226026,496.648357 C533.250629,503.329073 536.523615,510.385782 537.781349,518.188937 C538.682627,523.779715 536.862377,529.761999 531.112259,531.607986 C528.569881,532.42387 526.363316,531.821468 524.286506,531.11528 C518.891001,529.280373 513.524986,527.274459 508.576619,524.349245 C501.655761,520.258378 494.927692,515.910816 488.508159,511.025118 C480.747214,505.11855 472.929501,499.245223 466.235714,492.173371 C460.101493,485.692841 453.279794,479.904463 447.597871,472.964467 C440.432249,464.212095 433.3621,455.402843 428.768715,444.975859 C427.510611,442.119713 426.29748,439.011304 427.484808,435.517299 C428.193297,433.433084 429.067666,432.235667 431.228153,431.709719 C432.790369,431.329294 434.311667,430.983956 435.924384,431" id="Fill-8" fill="#000000"></path>
        <path d="M532.444591,287.081979 C545.256243,286.870489 558.031305,287.599652 570.724318,289.294891 C577.688972,290.224859 584.670258,291.303681 591.328887,293.699713 C594.188816,294.728794 596.876143,296.057057 598.728555,298.713582 C600.318924,300.994289 600.343317,303.209411 599.213834,305.612812 C598.041477,308.106851 596.265572,310.112694 594.150008,311.816407 C587.822906,316.911336 580.498635,320.191279 572.968131,322.987448 C558.727253,328.275444 543.994445,329.953735 528.884279,328.499462 C525.046032,328.129906 521.171933,328.007213 517.37545,327.39448 C515.20223,327.044084 512.984658,326.453458 510.901619,325.773668 C501.095515,322.57073 491.308631,319.207149 482.319703,314.066901 C477.687196,311.418112 473.015141,308.667264 470.067988,303.861937 C468.158289,300.747427 468.85128,295.885727 471.813587,293.812458 C475.747929,291.05903 480.346804,290.057214 484.937178,289.269468 C493.07234,287.872673 501.325034,287.442324 509.555552,287.1413 C517.175499,286.862751 524.813926,287.081979 532.444591,287.081979" id="Fill-10" fill="#000000"></path>
    </g>
</svg>