<?xml version="1.0" encoding="UTF-8"?>
<svg width="960px" height="960px" viewBox="0 0 960 960" version="1.1" xmlns="http://www.w3.org/2000/svg" xmlns:xlink="http://www.w3.org/1999/xlink">
    <title>com.logitech.z5500/drivers/z5500/pair/assets/image</title>
    <g id="com.logitech.z5500/drivers/z5500/pair/assets/image" stroke="none" stroke-width="1" fill="none" fill-rule="evenodd">
        <g id="Group-4" transform="translate(166.000000, 260.000000)" stroke="#000000" stroke-linecap="round" stroke-linejoin="round">
            <path d="M0.74529785,207.944985 C0.567084145,178.90322 0.318651528,129.337899 0,59.2490228 C0,46.7152576 8.32822429,35.7076554 20.3901197,32.2989409 L130.94616,1.05559486 C133.861317,0.231765944 136.890829,-0.113676747 139.916628,0.0327295636 L536.346659,19.2143919 C551.270797,19.9365112 563,32.2464268 563,47.1873391 L563,443.899157 C563,459.090805 550.887691,471.512328 535.700189,471.895905 C410.689107,475.053196 316.930795,477.421163 254.425254,478.999809 M53.4444234,464.408882 C46.4347091,462.842979 35.9201376,460.494124 21.9007089,457.362318" id="Shape" stroke-width="20"></path>
            <line x1="135.5" y1="0" x2="136" y2="245" id="Path-196" stroke-width="10"></line>
            <path d="M250.727536,451.765629 C280.464355,467.275158 314.007292,476 349.5,476 C451.881994,476 538.040197,403.401693 563.417933,304.773342 C568.362772,285.55566 569.304367,211.477315 566.083038,195.764454 C544.669116,91.3125443 455.834944,13 349.5,13 C247.533878,13 161.660014,85.0097204 135.894323,183.026073 C135.338481,185.140577 134.078075,223.76819 135.5,253.405331 C136.814262,280.798455 137.386169,312.608875 141.616413,324.597623" id="Path" stroke-width="10"></path>
            <path d="M237.20944,380.083527 C269.326006,417.014762 314.483417,440 364.5,440 C461.978258,440 541,352.695526 541,245 C541,137.304474 461.978258,50 364.5,50 C267.021742,50 188,137.304474 188,245" id="Path" stroke-width="10"></path>
        </g>
        <g id="Group-3" transform="translate(744.000000, 433.000000)" stroke="#000000" stroke-linecap="round" stroke-linejoin="round">
            <path d="M74.67416,11.9369049 C91.9203518,3.97896828 109.223815,0 126.584549,0 C143.945284,0 164.392002,3.97896828 187.924705,11.9369049 C203.133676,30.7523537 210.738161,42.5829931 210.738161,47.428823 C210.738161,54.6975678 216.797225,114.540888 202.360965,154.839582 C187.924705,195.138276 179.488701,219.572115 172.628772,230.175747 C165.768843,240.779378 148.251658,259 119.149076,259 C90.0464937,259 8.86097522,244.848203 3.12691338,234.591425 C-2.60714846,224.334647 -0.303546873,169.916211 8.79425446,154.839582 C17.8920558,139.762953 25.1687018,118.444442 29.0441303,105.710605 C32.9195589,92.9767673 40.8977385,62.9937466 51.2418055,43.9252275 C58.1378502,31.2128814 65.948635,20.5501072 74.67416,11.9369049 Z" id="Path-6" stroke-width="20" transform="translate(106.000000, 129.500000) scale(-1, 1) translate(-106.000000, -129.500000) "></path>
            <path d="M212,14 L197.545968,59.3055662 C196.887444,80.8037367 194.326988,100.32734 189.864601,117.876377 C183.17102,144.199932 168.436934,171.224348 165.524772,177.053961 C162.612609,182.883574 157.296553,223.556273 157.296553,228.477524 C157.296553,233.398776 107.490916,239.080438 79.0702747,236.239607 C50.6496334,233.398776 24,228.342952 24,223.284797" id="Path-7" stroke-width="10" transform="translate(118.000000, 125.500000) scale(-1, 1) translate(-118.000000, -125.500000) "></path>
            <path d="M66,165 C66,170.535472 79.664414,190.914008 114.615107,193.487928 C153.153239,196.326044 183.811556,187.253094 206,169.094209" id="Path-8" stroke-width="10" transform="translate(136.000000, 179.500000) scale(-1, 1) translate(-136.000000, -179.500000) "></path>
            <path d="M40,47.1632432 C51.3213303,39.2872225 70.5338194,24.9522908 101.333351,27.2453327 C132.132883,29.5383746 153.237975,42.9557764 161,60" id="Path-9" stroke-width="10" transform="translate(100.500000, 43.500000) scale(-1, 1) translate(-100.500000, -43.500000) "></path>
            <path d="M144.004472,260.185499 C132.084894,259.826607 113.755891,263.091845 89.0174627,269.981212 C51.9098199,280.315263 34,287.854528 34,292.904298 C34,296.270812 34,299.271461 34,301.906245 L71.7595085,301.906245 C100.717906,296.085426 124.425598,293.090623 142.882583,292.921834 C143.734816,292.91404 143.734816,295.908844 142.882583,301.906245 C143.434181,306.635415 148.051021,309 156.733103,309 C169.756227,309 191.515797,305.278725 201.509341,301.906245 C208.171703,299.657925 213.001923,297.374674 216,295.056492 L216,267.359488 C210.263582,262.576829 204.763778,260.185499 199.500589,260.185499 C194.237399,260.185499 193.198524,256.456999 196.383964,249" id="Path-10" stroke-width="10" transform="translate(125.000000, 279.000000) scale(-1, 1) translate(-125.000000, -279.000000) "></path>
            <path d="M74,302 L74,287.349789 C101.262644,273.783263 129.918302,267 159.966976,267 C190.015649,267 186.260536,276.248463 148.701638,294.745389" id="Path-11" stroke-width="10" transform="translate(127.000000, 284.500000) scale(-1, 1) translate(-127.000000, -284.500000) "></path>
        </g>
        <g id="Group" transform="translate(7.000000, 446.000000)" stroke="#000000" stroke-linecap="round" stroke-linejoin="round">
            <path d="M5.31264048,113.465437 C9.48055419,99.7974568 18.0608607,67.6149095 29.1856119,47.1475414 C34.5962875,37.192956 40.5305654,28.4092524 46.9884456,20.7964306 C48.5844731,18.9149661 51.0504732,16.2536843 54.386446,12.8125851 C72.9342371,4.27086171 91.543622,0 110.214601,0 C128.885579,0 150.875446,4.27086171 176.184202,12.8125851 C192.541019,33.0083179 200.719428,45.706842 200.719428,50.9081575 C200.719428,58.7101307 207.23578,122.943502 191.709991,166.19847 C176.184202,209.453439 167.111518,235.679722 159.733859,247.061226 C152.356199,258.44273 133.516963,278 102.217959,278 C80.0125553,278 29.6135353,270.354376 0,261.980324" id="Path" stroke-width="20" transform="translate(101.038250, 139.000000) scale(-1, 1) translate(-101.038250, -139.000000) "></path>
            <path d="M203.632783,15 L188.179271,63.7593538 C187.47521,86.8963982 184.737701,107.908348 179.966745,126.795204 C172.81031,155.125488 157.057378,184.21006 153.943842,190.484084 C150.830307,196.758107 145.146651,240.531415 145.146651,245.827829 C145.146651,251.124243 91.8970073,257.239036 61.5111089,254.18164 C48.6658877,252.889167 36.159041,251.170687 26,249.206098" id="Path-7" stroke-width="10" transform="translate(114.816392, 135.000000) scale(-1, 1) translate(-114.816392, -135.000000) "></path>
            <path d="M70,198.571104 C78.0331519,202.930591 88.7098632,206.451483 102.426143,207.452613 C143.992271,210.48646 177.059456,200.78779 200.991277,181.376569" id="Path-8" stroke-width="10" transform="translate(135.495639, 194.688284) scale(-1, 1) translate(-135.495639, -194.688284) "></path>
            <path d="M42,50.385258 C54.1634127,42.0319026 74.80493,26.8281872 107.895336,29.2602014 C140.985742,31.6922155 163.660635,45.9227932 172,64" id="Path-9" stroke-width="10" transform="translate(107.000000, 46.500000) scale(-1, 1) translate(-107.000000, -46.500000) "></path>
            <path d="M137.301642,279.117624 C124.465174,278.728824 104.726247,282.266165 78.0848628,289.729646 C64.8097714,293.448612 53.8161544,296.833468 45.0531643,299.896337 C33.3089745,304.001206 32.9911205,312.140793 44.0996024,324.315098 L59.4993737,324.315098 C90.6853401,318.009212 116.2167,314.764841 136.093454,314.581987 C137.011243,314.573544 137.011243,317.817914 136.093454,324.315098 C136.687483,329.438366 141.659464,332 151.009399,332 C165.034301,332 188.467684,327.968618 199.229962,324.315098 C206.404814,321.879419 211.606589,319.405897 214.835288,316.894533 L214.835288,286.889446 C208.657607,281.708231 202.734741,279.117624 197.066691,279.117624 C191.398641,279.117624 190.279852,275.078416 193.710325,267" id="Path-10" stroke-width="10" transform="translate(125.417644, 299.500000) scale(-1, 1) translate(-125.417644, -299.500000) "></path>
            <path d="M79,323 L79,307.512634 C108.577397,293.170878 139.666083,286 172.266058,286 C204.866034,286 200.792091,295.776947 160.04423,315.33084" id="Path-11" stroke-width="10" transform="translate(136.500000, 304.500000) scale(-1, 1) translate(-136.500000, -304.500000) "></path>
        </g>
        <path d="M425.277021,511.405331 L407.676672,810.367159 L395.327623,828.537519 L231.886217,828.537519 L205.544833,805.630165 L246.349424,511.405331 L425.277021,511.405331 Z" id="Path-2" stroke="#000000" stroke-width="20" stroke-linecap="round" stroke-linejoin="round" transform="translate(315.432544, 669.971425) scale(-1, 1) translate(-315.432544, -669.971425) "></path>
        <polygon id="Path-3" fill="#000000" transform="translate(305.790416, 579.250839) scale(-1, 1) translate(-305.790416, -579.250839) " points="252.49138 513.405331 235.808412 645.096347 366.350498 645.096347 375.772419 513.405331"></polygon>
        <ellipse id="Oval" stroke="#000000" stroke-width="10" stroke-linecap="round" stroke-linejoin="round" transform="translate(317.888805, 693.381874) scale(-1, 1) translate(-317.888805, -693.381874) " cx="317.888805" cy="693.381874" rx="46.08" ry="42.24"></ellipse>
        <ellipse id="Oval" fill="#000000" transform="translate(385.543164, 786.653379) scale(-1, 1) translate(-385.543164, -786.653379) " cx="385.543164" cy="786.653379" rx="14.7272727" ry="13.5"></ellipse>
        <path d="M317.912521,651 C341.840015,651 361.500578,667.680298 363.706622,689.000053 L363.912521,689 L363.912521,706 L363.899718,706.00081 C363.317483,728.734431 342.951228,747 317.912521,747 C292.873814,747 272.50756,728.734431 271.925325,706.00081 L271.912521,706 L271.912521,689 L272.118421,689.000053 C274.324465,667.680298 293.985028,651 317.912521,651 Z" id="Combined-Shape" stroke="#000000" stroke-width="10" stroke-linecap="round" stroke-linejoin="round" transform="translate(317.888805, 699.141874) scale(-1, 1) translate(-317.888805, -699.141874) "></path>
        <polygon id="Path-5" stroke="#000000" stroke-width="20" stroke-linecap="round" stroke-linejoin="round" transform="translate(329.709140, 854.971425) scale(-1, 1) translate(-329.709140, -854.971425) " points="305.643766 840.537519 305.643766 847.247631 281.226339 847.247631 235.747288 859.139945 235.747288 866.305456 414.609867 869.405331 423.670991 847.247631 386.306018 844.490457 386.306018 840.537519"></polygon>
    </g>
</svg>